<svg xmlns="http://www.w3.org/2000/svg" xmlns:xlink="http://www.w3.org/1999/xlink" viewBox="0 0 2879 1268"><defs><style>.cls-1{fill:url(#linear-gradient);}.cls-2{fill:url(#linear-gradient-2);}.cls-3{fill:#d7d9df;}.cls-4{fill:#b9babc;}.cls-5{fill:#ccc;}.cls-6{fill:none;stroke:#142e68;stroke-miterlimit:10;}</style><linearGradient id="linear-gradient" x1="1439.5" y1="1194" x2="1439.5" gradientUnits="userSpaceOnUse"><stop offset="0" stop-color="#cdd0d8" stop-opacity="0.5"/><stop offset="0.01" stop-color="#cdd0d8" stop-opacity="0.47"/><stop offset="0.04" stop-color="#cdd0d8" stop-opacity="0.37"/><stop offset="0.08" stop-color="#cdd0d8" stop-opacity="0.29"/><stop offset="0.13" stop-color="#cdd0d8" stop-opacity="0.24"/><stop offset="0.2" stop-color="#cdd0d8" stop-opacity="0.21"/><stop offset="0.39" stop-color="#cdd0d8" stop-opacity="0.2"/><stop offset="0.42" stop-color="#c6cad1" stop-opacity="0.18"/><stop offset="0.51" stop-color="#b7bdbf" stop-opacity="0.13"/><stop offset="0.64" stop-color="#aeb5b5" stop-opacity="0.11"/><stop offset="1" stop-color="#abb3b2" stop-opacity="0.1"/><stop offset="1" stop-color="#95929a" stop-opacity="0.1"/><stop offset="1" stop-color="#684e69" stop-opacity="0.1"/><stop offset="1" stop-color="#5c3b5c" stop-opacity="0.1"/></linearGradient><linearGradient id="linear-gradient-2" x1="1439.5" y1="1266" x2="1439.5" y2="278" gradientUnits="userSpaceOnUse"><stop offset="0" stop-color="#cdd0d8"/><stop offset="0.01" stop-color="#cdd0d8" stop-opacity="0.92"/><stop offset="0.03" stop-color="#cdd0d8" stop-opacity="0.75"/><stop offset="0.05" stop-color="#cdd0d8" stop-opacity="0.6"/><stop offset="0.07" stop-color="#cdd0d8" stop-opacity="0.47"/><stop offset="0.1" stop-color="#cdd0d8" stop-opacity="0.37"/><stop offset="0.13" stop-color="#cdd0d8" stop-opacity="0.29"/><stop offset="0.17" stop-color="#cdd0d8" stop-opacity="0.24"/><stop offset="0.22" stop-color="#cdd0d8" stop-opacity="0.21"/><stop offset="0.37" stop-color="#cdd0d8" stop-opacity="0.2"/><stop offset="0.4" stop-color="#c5cad0" stop-opacity="0.18"/><stop offset="0.49" stop-color="#b2bbbe" stop-opacity="0.13"/><stop offset="0.63" stop-color="#a7b2b3" stop-opacity="0.11"/><stop offset="1" stop-color="#a4b0b0" stop-opacity="0.1"/><stop offset="1" stop-color="#abb3b2" stop-opacity="0.1"/></linearGradient></defs><title>moon2_Asset 2</title><g id="Layer_2" data-name="Layer 2"><g id="Layer_2-2" data-name="Layer 2"><path class="cls-1" d="M2879,156.63C2531.73,59.36,2069,0,1561,0,922.82,0,356.17,93.67,0,238.5v717C356.17,1100.33,922.82,1194,1561,1194c508,0,970.73-59.36,1318-156.63Z"/><path class="cls-2" d="M2879,1266V434.63C2531.73,337.36,2069,278,1561,278,922.82,278,356.17,371.67,0,516.5v717q41.11,16.72,85.89,32.5Z"/></g><g id="Flag"><path class="cls-3" d="M2297.11,684.73l1-.52c4.28-3.35-5.44-35.78-22.61-38.21l-267-29c-17.17-2.43-51.76,14.37-56,17.72l-.17.44q-25.91-2.72-52.15-5.2a14,14,0,0,0,2.69-9.27c-1.12-14.7-24.9-28.52-53-30.63-28.09-2.26-50.34,8-49.22,22.66a18.07,18.07,0,0,0,3.58,9.09c-125.28-9.45-255.36-14.69-388.83-15.26a24.58,24.58,0,0,0,7.22-12.48c2.93-13.82-8.72-26.37-26-27.79s-33.87,8.51-36.8,22.33a20.25,20.25,0,0,0,5,18q-122.32.57-240.52,6.25c-2-2.68-5.68-4.85-10.18-5.55-7.07-1.17-13.47,1.7-14.16,6.34,0,.14,0,.29,0,.43q-45.9,2.4-91,5.53a11.73,11.73,0,0,0-.5-6.59c-4.49-11.88-27.52-17.54-51.29-12.45-20.61,4.29-35.3,15.28-35.92,25.87-154.9,13.41-302,33.29-438.38,58.73-10.58-2.09-26.53-3.77-34.53-2.09l-176.3,37c-9.72,2-14,9.91-11.81,13.88q-19.16,4.89-37.91,9.94c2.26-8.15.29-16.59-6.94-24.6-9-10-43.87-6.71-77.78,7.17s-54,33.35-45,43.31a56.68,56.68,0,0,0,10.46,9.08Q49.35,795.94,0,814.39V1268H2879V853.85C2723.13,784.86,2524.89,727.06,2297.11,684.73Z"/><path class="cls-4" d="M1143.51,992.81a20.48,20.48,0,0,1-2.84,12.13c-8.27,15.23-33.92,27.82-65.1,30.57-34.52,3-64.39-7.06-72.28-23.31a19,19,0,0,1-2-7c-1.71-20.17,28.66-39.29,67.94-42.69S1141.73,972.57,1143.51,992.81Z"/><path class="cls-5" d="M1140.74,1004.87c-8.27,15.23-33.92,27.82-65.1,30.57-34.52,3-64.39-7.06-72.28-23.31,8.27-15.23,33.92-27.82,65.18-30.63C1103,978.6,1132.78,988.69,1140.74,1004.87Z"/><path class="cls-4" d="M554.29,828.76c-.05,6.76-2.48,13.67-6.9,20.59-16.6,26.67-62,52-115.08,62-58.7,10.92-107.32-.46-117.79-26a26.93,26.93,0,0,1-2.1-11.28c.63-33.12,55.17-70.1,122-82.58S554.82,795.53,554.29,828.76Z"/><path class="cls-5" d="M547.53,849.22c-16.6,26.67-62,52-115.08,62-58.7,10.92-107.32-.46-117.79-26,16.6-26.67,62-52,115.21-62.12C488.45,812.29,536.93,823.8,547.53,849.22Z"/><path class="cls-4" d="M1220.23,694.4a21.88,21.88,0,0,1-2.84,13.16c-8.69,16.43-36.3,29.65-70.13,32-37.45,2.53-70.11-9-79-26.85A21.39,21.39,0,0,1,1066,705c-2.26-22,30.36-42.25,73-45.17S1217.89,672.3,1220.23,694.4Z"/><path class="cls-5" d="M1217.47,707.48c-8.69,16.43-36.3,29.65-70.13,32-37.45,2.53-70.11-9-79-26.85,8.69-16.43,36.3-29.65,70.2-32.08C1175.9,678.1,1208.49,689.69,1217.47,707.48Z"/><path class="cls-4" d="M106.1,755.88c-2.35-2.61,15.5-12.85,39.86-22.82s46.09-16,48.44-13.41-15.5,12.85-39.86,22.82S108.45,758.49,106.1,755.88Z"/><path class="cls-4" d="M2445.78,856.55c-.89,10.77-5.31,20.54-12.68,29.28-27.76,33.93-98,50.7-177.56,39-88.08-13.2-158.56-56.75-170.94-103a51.86,51.86,0,0,1-1.75-19.12c4.93-52.57,90-83.17,190.24-68.23C2373.19,749.13,2450.57,803.76,2445.78,856.55Z"/><path class="cls-5" d="M2433.31,885.7c-27.76,33.93-98,50.7-177.56,39-88.08-13.2-158.56-56.75-170.94-103,27.76-33.93,98-50.7,177.77-39.08C2350.45,795.89,2420.71,839.57,2433.31,885.7Z"/><path class="cls-4" d="M1808.46,703.63a20.48,20.48,0,0,1-5,11.42c-10.86,13.5-38.35,21.31-69.52,18.43-34.49-3.26-62.09-18.46-66.95-35.86a19,19,0,0,1-.69-7.26c1.92-20.15,35.23-33.53,74.48-29.85S1810.33,683.39,1808.46,703.63Z"/><path class="cls-5" d="M1803.59,715c-10.86,13.5-38.35,21.31-69.52,18.43-34.49-3.26-62.09-18.46-66.95-35.86,10.86-13.5,38.35-21.31,69.6-18.48C1771.13,682.4,1798.65,697.65,1803.59,715Z"/><path class="cls-4" d="M1669.58,944.89c-.81,7.78-4.21,14.88-9.76,21.29-20.94,24.86-72.89,38-131.35,30.66-64.68-8.24-116-38.61-124.42-71.78a36.27,36.27,0,0,1-1-13.76c4.39-38,67.5-61.26,141.11-51.95C1617.67,868.5,1673.87,906.76,1669.58,944.89Z"/><path class="cls-5" d="M1660,966.09c-20.94,24.86-72.89,38-131.35,30.66-64.68-8.24-116-38.61-124.42-71.78,20.94-24.86,72.89-38,131.51-30.75C1600.24,902.54,1651.36,933,1660,966.09Z"/><path class="cls-4" d="M2078.58,991.36a28.48,28.48,0,0,1-3.95,16.86c-11.5,21.17-47.16,38.69-90.52,42.5-48,4.11-89.53-9.81-100.5-32.4a26.45,26.45,0,0,1-2.74-9.76c-2.38-28,39.85-54.63,94.46-59.36S2076.1,963.21,2078.58,991.36Z"/><path class="cls-5" d="M2074.73,1008.13c-11.5,21.17-47.16,38.69-90.52,42.5-48,4.11-89.53-9.81-100.5-32.4,11.5-21.17,47.16-38.69,90.62-42.59C2022.23,971.61,2063.66,985.62,2074.73,1008.13Z"/><path class="cls-4" d="M1369.41,1173.54a7.2,7.2,0,0,1-1,4.26c-2.91,5.35-11.93,9.78-22.89,10.75-12.14,1-22.64-2.48-25.42-8.2a6.69,6.69,0,0,1-.69-2.47c-.6-7.09,10.08-13.82,23.89-15S1368.78,1166.42,1369.41,1173.54Z"/><path class="cls-5" d="M1368.43,1177.78c-2.91,5.35-11.93,9.78-22.89,10.75-12.14,1-22.64-2.48-25.42-8.2,2.91-5.35,11.93-9.78,22.92-10.77C1355.15,1168.55,1365.63,1172.09,1368.43,1177.78Z"/><path class="cls-6" d="M1244,692.82"/><path class="cls-5" d="M108,756c-1.88-2.11,21.57-12.58,41.07-20.65S192.12,717.89,194,720c4,2-18.57,14.9-38.07,23S109.88,758.11,108,756Z"/><path class="cls-4" d="M939.1,617.88C946,605,982,599,994,612"/><path class="cls-5" d="M994,612c-15,9-53.12,8.11-55,6"/><path class="cls-4" d="M1404.2,581.22a3.49,3.49,0,0,1-.48,2.07c-1.41,2.6-5.78,4.74-11.1,5.21-5.88.5-11-1.2-12.32-4a3.24,3.24,0,0,1-.34-1.2c-.29-3.44,4.88-6.7,11.58-7.28S1403.9,577.77,1404.2,581.22Z"/><path class="cls-5" d="M1403.73,583.27c-1.41,2.6-5.78,4.74-11.1,5.21-5.88.5-11-1.2-12.32-4,1.41-2.6,5.78-4.74,11.11-5.22C1397.29,578.8,1402.37,580.51,1403.73,583.27Z"/><path class="cls-4" d="M1877.4,611.9a7.2,7.2,0,0,1-1.72,4c-3.79,4.77-13.44,7.57-24.41,6.62-12.13-1.08-21.87-6.37-23.61-12.47a6.69,6.69,0,0,1-.26-2.55c.64-7.09,12.32-11.86,26.13-10.65S1878,604.79,1877.4,611.9Z"/><path class="cls-5" d="M1875.71,615.91c-3.79,4.77-13.44,7.57-24.41,6.62-12.13-1.08-21.87-6.37-23.61-12.47,3.79-4.77,13.44-7.57,24.44-6.64C1864.23,604.52,1873.94,609.82,1875.71,615.91Z"/></g></g></svg>