<svg xmlns="http://www.w3.org/2000/svg" viewBox="0 0 370 370"><defs><style>.cls-1{fill:#52a4f7;}.cls-2{fill:#407abc;}.cls-3{fill:#729261;}.cls-4{fill:#a1cb69;}</style></defs><title>earthAsset 9</title><g id="Layer_2" data-name="Layer 2"><g id="Layer_2-2" data-name="Layer 2"><path class="cls-1" d="M370,185a185.37,185.37,0,0,1-3.66,36.73C349.3,306.31,274.57,370,185,370A185,185,0,0,1,171.29.53C175.82.2,180.41,0,185,0A185,185,0,0,1,370,185Z"/><path class="cls-2" d="M289.48,32.34a183.14,183.14,0,0,0-36.93-19.56,184.16,184.16,0,0,1,48.51,124.91,185.37,185.37,0,0,1-3.66,36.73c-17,84.58-91.77,148.27-181.34,148.27a183.61,183.61,0,0,1-66.75-12.44c-.27-.13-.53-.2-.8-.33A184.25,184.25,0,0,0,185,370c89.57,0,164.3-63.69,181.34-148.27A185.16,185.16,0,0,0,289.48,32.34Z"/><path class="cls-3" d="M178,86.44c-50.11,14.51-46.85,15.11-36.6,54.9,7.85,30.54-13.64,48.91-56,32.87-50.64-19.23-63,58.89-25.15,56.9C141,226.79,76,264.52,78.92,279.23c6.06,31.14,67.48,25.62,54.37,57.23-2.33,5.72-7.12,12.58-15,21.1A184.94,184.94,0,0,1,0,185C0,92,68.68,15,158.12,1.93c4.33-.6,8.72-1.13,13.18-1.46C189.39,25,221.67,73.73,178,86.44Z"/><path class="cls-3" d="M370,185a186.66,186.66,0,0,1-3.66,36.73c-11.31-3.79-23-7.12-34.34-8.19-59.23-5.39-2.13-76.46-68.94-89.37-54.9-10.65,3.79-70.81,26.42-91.83,4.06,2.79,7.92,5.66,11.71,8.72A184.56,184.56,0,0,1,370,185Z"/><path class="cls-3" d="M186.46,301.72a60.56,60.56,0,0,0,59.83,22.23c20-3.93,43.32-13.51,53.5-36.27,19.37-43.59-42.79-68.68-45.25-91.3s-47.78-11.31-42.79,36.33C216.41,277.43,163.11,271.38,186.46,301.72Z"/><path class="cls-4" d="M231.38,309.64a46.92,46.92,0,0,1-26.82-8.38,6,6,0,0,1-.53-9.45,92.65,92.65,0,0,0,17.83-20.1c9.58-15,13.38-32.54,11.31-52.11v-.2A5.93,5.93,0,0,1,243.63,215c5.12,6,10.91,11.65,16.64,17.17,9.78,9.52,19.83,19.37,25,28.81,3.93,7.19,4.19,12.24,1.13,19.23-6.26,14.11-21.69,23.69-45.85,28.48a47.25,47.25,0,0,1-9.18.93Z"/><path class="cls-4" d="M245.16,286.48a19.59,19.59,0,0,1-11.38-3.59,2.5,2.5,0,0,1-.2-4,40.27,40.27,0,0,0,7.59-8.52A33.8,33.8,0,0,0,246,248.22v-.07a2.54,2.54,0,0,1,4.46-1.86c2.2,2.53,4.66,4.92,7.12,7.32,4.13,4.06,8.45,8.25,10.65,12.31,1.66,3.06,1.8,5.19.47,8.19-2.66,6-9.25,10.12-19.56,12.11-1.4.13-2.66.27-4,.27Z"/><path class="cls-4" d="M167.76,68.14c-38,12.91-52.17,17.57-47.31,52.31S115,168.9,77.66,152.72c-32.67-14-65.42,29.08-54.1,63.82s60.29,20,63,28.48-39.86,45.52-9.72,64.88a166.2,166.2,0,0,0,20.83,11,22.47,22.47,0,0,1,10.18,31.94c-.07.07-.07.13-.13.2-5.59-2.6-11-5.46-16.3-8.52A184.78,184.78,0,0,1,0,184.93v-3.13C1.33,98.89,57.3,29.21,133.49,7.19a178,178,0,0,1,24.62-5.32C174.42,26.49,191.19,60.16,167.76,68.14Z"/><path class="cls-4" d="M370,185c0,1.2,0,2.4-.07,3.59-.07,4.79-.33,9.58-.8,14.31-55.7-5.92-53-23.09-57.56-55.57-4.86-34.47-19.37-32.87-49-43.06C238.7,96,283.22,56.17,301.26,41.13A184.89,184.89,0,0,1,370,185Z"/><path class="cls-4" d="M370,185c0,1.2,0,2.4-.07,3.59-31.54-4.86-35.67-37.47-38.33-56.56-3.26-23.36-28.62-30.35-32.14-46.78-2.53-12,12.84-21.49,21.36-25.82A184.27,184.27,0,0,1,370,185Z"/><path class="cls-4" d="M141.41,55c-33.94,18.57-42.79,25-41.19,49.24s4.86,44.45-35.54,31.48c-30-9.58-43.52,31.14-64.68,46.12C1.33,99,57.3,29.28,133.49,7.25,147.47,21.16,163.37,43,141.41,55Z"/><path class="cls-4" d="M47.12,271.71c-3.39,10.58-6.85,19.3-8.78,26.15a185,185,0,0,1-26-46C30.35,252.54,52,256.4,47.12,271.71Z"/><path class="cls-4" d="M91.3,344.58a185,185,0,0,1-35.67-27.28C71.8,318,93.63,318.16,91.3,344.58Z"/><path class="cls-3" d="M217.54,140.21a22.82,22.82,0,0,0-13.78-21.76c-9.45-4.06-18.63-7.45-26.15,2.73a26.1,26.1,0,0,0-4.06,22.09c1.26,4.86,2.6,10,2.6,10.18-7.25,24.76-5.12,46.18,15.37,32.87S217,153.92,217.54,140.21Z"/><path class="cls-4" d="M185.53,177.35a1.6,1.6,0,0,1-2.46-1.33c0-4.19.8-10.71,3.39-19.43.87-3.06.87-3.06-2.46-16a15.36,15.36,0,0,1,2.33-13c1.73-2.33,2.66-2.33,3.39-2.33,2.66,0,7.12,1.93,9.85,3.13a12.18,12.18,0,0,1,7.32,11.45c-.73,16-7.92,28.68-21.36,37.47Z"/></g></g></svg>