<svg version="1.1" id="Layer_1" xmlns="http://www.w3.org/2000/svg" xmlns:xlink="http://www.w3.org/1999/xlink" x="0px" y="0px"
	 viewBox="0 0 1547.2 1061.6" style="enable-background:new 0 0 1547.2 1061.6;" xml:space="preserve">
<style type="text/css">
	.st0{fill:#FFFFFF;}
</style>
<path class="st0" d="M773.6,454.2l201.8-119.3L773.6,0L571.7,334.9L773.6,454.2L773.6,454.2z M139.5,985.5c0,3.4-2.8,6.2-6.2,6.2
	H12.5c3.1,29.8,25.5,57.1,57.1,57.1c21.6,0,37.6-8.2,49.7-25.5c1.7-2.4,4.4-3.9,7.7-2.5c1.7,0.8,3.1,2.4,3.4,4.4
	c0.3,2-0.2,3.1-0.8,4.2c-12.1,21.2-36.3,31.6-60,31.6c-40.7,0-69.5-36.3-69.5-75.2c0-38.9,29-75.2,69.5-75.2
	C110.1,910.4,139.5,946.6,139.5,985.5 M126.6,979.5c-2.6-29.8-25.5-57.1-57.1-57.1c-31.6,0-54,27.2-57.1,57.1H126.6z M286,913.4
	c3.5,0,6,3.1,6,6c0,3.5-2.6,6-6,6h-32.4v127.1c0,3.1-2.6,6-6,6c-3.5,0-6-3.1-6-6V925.5h-31.2c-3.5,0-6-2.6-6-6c0-3.1,2.6-6,6-6h31.2
	V867c0-3,2-5.7,4.9-6.1c4-0.7,7.2,2.1,7.2,5.9v46.7H286z M483.6,974.8v77c0,3.5-3.1,6-6,6c-3.5,0-6-2.6-6-6v-77
	c0-25.9-14.7-51.8-43.6-51.8c-37.2,0-53.1,32.4-51,65.7c0,0.9,0.4,4.7,0.4,5.1v57.7c0,3-2,5.7-4.9,6.1c-4,0.7-7.2-2.1-7.2-5.9V798.9
	c0-3.1,2.6-6,6-6c3.5,0,6,3.1,6,6v143c10.4-18.6,29-31.2,50.5-31.2C463.3,910.8,483.6,942,483.6,974.8 M700.1,985.5
	c0,3.4-2.8,6.2-6.2,6.2H573.1c3.1,29.8,25.5,57.1,57.1,57.1c21.6,0,37.6-8.2,49.7-25.5c1.7-2.4,4.4-3.9,7.7-2.5
	c1.7,0.8,3.1,2.4,3.4,4.4c0.3,2-0.2,3.1-0.8,4.2c-12.1,21.2-36.3,31.6-60,31.6c-40.7,0-69.5-36.3-69.5-75.2
	c0-38.9,29-75.2,69.5-75.2C670.7,910.4,700,946.6,700.1,985.5 M687.1,979.5c-2.6-29.8-25.5-57.1-57.1-57.1s-54,27.2-57.1,57.1H687.1
	z M848.4,919c0,3.9-2.2,6-5.6,6.5c-35.4,5.1-51.4,34.1-51.4,67.9v57.7c0,3-2,5.7-4.9,6.1c-4,0.7-7.2-2.1-7.2-5.9V919.6
	c0-3,2-5.7,4.9-6.1c4-0.7,7.2,2.1,7.2,5.9v26.8c9.9-16.8,29.8-32.8,50.5-32.8C844.9,913.4,848.4,915.5,848.4,919 M1046.7,985.5
	c0,3.4-2.8,6.2-6.2,6.2H919.7c3.1,29.8,25.5,57.1,57.1,57.1c21.6,0,37.6-8.2,49.7-25.5c1.7-2.4,4.4-3.9,7.7-2.5
	c1.7,0.8,3.1,2.4,3.4,4.4c0.3,2-0.2,3.1-0.8,4.2c-12.1,21.2-36.3,31.6-60,31.6c-40.7,0-69.5-36.3-69.5-75.2
	c0-38.9,29-75.2,69.5-75.2C1017.3,910.4,1046.6,946.6,1046.7,985.5 M1033.7,979.5c-2.6-29.8-25.5-57.1-57.1-57.1
	c-31.6,0-54,27.2-57.1,57.1H1033.7L1033.7,979.5z M1241.7,920.5v132c0,3.5-3.1,6-6,6c-3.5,0-6-2.6-6-6v-25
	c-9.9,19.9-27.7,34.1-50.2,34.1c-35.9,0-55.8-31.2-55.8-64v-77.4c0-3.1,2.6-6,6-6c3.5,0,6,3.1,6,6v77.4c0,25.9,14.7,51.8,43.6,51.8
	c40.7,0,50.2-38.1,50.2-79.9v-49.3c0-3.5,3.5-7,7.8-5.8C1239.9,915.3,1241.7,917.8,1241.7,920.5 M1547.2,974.3v77.4c0,3.5-3.1,6-6,6
	c-3.5,0-6-2.6-6-6v-77.4c0-25.9-14.7-51.4-43.6-51.4c-36.3,0-50.2,38.9-50.2,69.1v59.6c0,3.5-3.1,6-6,6c-3.5,0-6-2.6-6-6v-77.4
	c0-25.9-14.7-51.4-43.6-51.4c-36.7,0-51.8,29-50.5,67.5c0,0.9,0.4,2.6,0,3.1v58.2c0,3-2,5.7-4.9,6.1c-4,0.7-7.2-2.1-7.2-5.9V919.6
	c0-3,2-5.7,4.9-6.1c4-0.7,7.2,2.1,7.2,5.9v22.1c10.4-18.6,29-30.7,50.5-30.7c24.6,0,43.6,15.5,51.4,38.5
	c9.9-22.5,29.4-38.5,54.5-38.5C1526.8,910.8,1547.2,941.5,1547.2,974.3"/>
<path class="st0" d="M773.6,657.6l202-284.4l-202,119.2L571.7,373.2L773.6,657.6z"/>
</svg>
