<svg xmlns="http://www.w3.org/2000/svg" viewBox="0 0 316.26 593.11"><defs><style>.cls-1{fill:#f7931a;}.cls-2{fill:#fcfcfc;}.cls-3{fill:#fff;}.cls-4{fill:#e6e6e6;}</style></defs><title>Asset 10</title><g id="Layer_2" data-name="Layer 2"><g id="Flag"><path class="cls-1" d="M308.58,104.09c2.35,22.32,4.19,44.72,7.22,66.93,2.52,18.46-5.58,30.72-18.67,40.18-13.9,10.05-29.57,10.08-45.45,6.88-18.64-3.76-35-13.66-51.88-22.07-18.21-9.06-37.15-14.42-57.47-12-18,2.18-33.25,10.56-46,24.25-1.65,1.77-3.12,3.73-4.79,5.46-4.67,4.82-11.38,2.84-13.14-3.89a33.16,33.16,0,0,1-.77-4.91c-5.05-47.78-10-95.57-15.27-143.31-.81-7.26,1-12.51,5.74-17.34,26.07-26.74,56.78-35.6,92-27.67,18.52,4.17,34.89,13.84,51.79,22.23,12.91,6.41,26.29,11.27,40.85,11.16,15.48-.11,25.58-7.15,31.63-22.28a18.87,18.87,0,0,1,2-4.45c2.16-2.84,5-3.57,8.41-2.73,3.86,1,5.23,4,5.66,7.63,1,8.42,1.82,16.86,2.71,25.29Z"/><path class="cls-2" d="M53.26,593.09c-14-1.07-27.84-2.76-40.63-9.57-15.22-8.1-18-25.16-1.12-37.21C24,537.38,38.2,532.81,53.1,530.22c4.2-.73,5.3-2.28,4.9-6.54Q35.77,286.93,13.8,50.16c-.23-2.45-.64-4.38-3.12-5.82-3-1.74-4.44-4.84-4.78-8.33-.67-6.92-1.17-13.86-2-20.76-.67-5.48,2.65-9,5.54-12.86L34.94,0c6.52,2.78,9.2,7.8,9.35,14.79.13,5.83,1,11.65,1.54,17.47.31,3.15-.1,6.5-2.46,8.33-3.19,2.47-2.78,5.28-2.49,8.45q22,235.41,43.89,470.81c.62,6.69.63,6.66,7.53,6.76,14.31.21,28.33,1.94,41.58,7.89A37.17,37.17,0,0,1,144,541.32a18.39,18.39,0,0,1,2,24.2c-7.47,9.91-18.26,14.77-29.49,18.76a191.52,191.52,0,0,1-21,5.66C87.26,591.85,55.46,593.25,53.26,593.09Zm21.58-16.64c9.58-.92,17.92-2,26-4.28,9.85-2.76,19.73-5.69,28.12-12,5.81-4.37,5.82-7-.46-10.22-12.33-6.24-25.75-6.88-39.21-7.14-2.15,0-2.21,1.3-2.08,2.82.29,3.3.53,6.62.94,9.91.28,2.2-.47,3.13-2.73,3.31-6.93.55-13.85,1.18-20.76,1.94-2.4.26-3.49-.38-3.59-2.91-.13-3.15-.61-6.29-.81-9.44-.14-2.22-1-3.05-3.32-2.58-11.34,2.3-22.47,5.24-32.47,11.26-3.25,2-8.06,3.75-7.54,8.22s5.45,5.22,9.09,6.5C42.3,577.54,59.14,577.53,74.84,576.45Z"/><path class="cls-3" d="M212.39,79.31c-4.07-9.24-13.36-9.71-24.06-7.19L184,58.89l-8.06,2.66,4.25,12.89c-2.12.7-4.27,1.45-6.4,2.21l-4.29-13-8.05,2.66,4.37,13.22L149.54,85l2.85,8.6s5.91-2.08,5.85-1.94c3.26-1.08,5,.46,5.8,2l12,36.25a3,3,0,0,1-2.15,3.66c.13.06-5.86,1.93-5.86,1.93l1.58,10.16,16.26-5.32,4.43,13.39,8-2.66L194,137.79c2.23-.69,4.37-1.37,6.45-2.06l4.35,13.18,8.05-2.66-4.41-13.36C221.69,127.63,230,121.09,227,108c-2.43-10.55-8.76-13.53-17.06-12.84,3.88-3.93,5.42-9.08,2.43-15.84m-1.81,32.34c3.3,10-14.19,14.52-19.65,16.33l-5.86-17.73c5.46-1.8,22.06-9,25.51,1.4m-12-23.78c3,9.1-11.63,12.76-16.18,14.27l-5.32-16.08c4.55-1.5,18.36-7.67,21.5,1.82"/><path class="cls-4" d="M78.26,591.85c-6.15.57-22.8,1.4-25,1.23-14-1.07-27.84-2.76-40.63-9.57-15.22-8.1-18-25.16-1.12-37.21C24,537.38,38.2,532.81,53.1,530.22c4.2-.73,5.3-2.28,4.9-6.54Q35.77,286.93,13.8,50.16c-.23-2.45-.64-4.38-3.12-5.82-3-1.74-4.44-4.84-4.78-8.33-.67-6.92-1.17-13.86-2-20.76-.67-5.48,2.65-9,5.54-12.86l12.85-1.2m53,558.67c-3.4.32-7.22.56-10.62.94-2.4.26-3.49-.38-3.59-2.91-.13-3.15-.61-6.29-.81-9.44-.14-2.22-1-3.05-3.32-2.58-11.34,2.3-22.47,5.24-32.47,11.26-3.25,2-8.06,3.75-7.54,8.22s5.45,5.22,9.09,6.5c16.3,5.71,34.56,5.1,50.26,4"/></g></g></svg>