<svg xmlns="http://www.w3.org/2000/svg" xmlns:xlink="http://www.w3.org/1999/xlink" viewBox="0 0 1454 352.29"><defs><style>.cls-1{fill:none;}.cls-2{clip-path:url(#clip-path);}.cls-3{clip-path:url(#clip-path-2);}.cls-4{fill:#d7d9df;}.cls-5{clip-path:url(#clip-path-3);}.cls-6{fill:#b9babc;}.cls-7{clip-path:url(#clip-path-5);}.cls-8{fill:#ccc;}.cls-9{clip-path:url(#clip-path-7);}.cls-10{clip-path:url(#clip-path-9);}.cls-11{clip-path:url(#clip-path-11);}.cls-12{clip-path:url(#clip-path-13);}.cls-13{clip-path:url(#clip-path-15);}.cls-14{clip-path:url(#clip-path-17);}.cls-15{clip-path:url(#clip-path-19);}.cls-16{clip-path:url(#clip-path-21);}.cls-17{clip-path:url(#clip-path-23);}.cls-18{clip-path:url(#clip-path-25);}.cls-19{clip-path:url(#clip-path-27);}.cls-20{clip-path:url(#clip-path-29);}.cls-21{clip-path:url(#clip-path-31);}.cls-22{clip-path:url(#clip-path-33);}.cls-23{clip-path:url(#clip-path-35);}.cls-24{clip-path:url(#clip-path-37);}.cls-25{clip-path:url(#clip-path-39);}.cls-26{clip-path:url(#clip-path-41);}.cls-27{clip-path:url(#clip-path-43);}.cls-28{clip-path:url(#clip-path-45);}.cls-29{clip-path:url(#clip-path-47);}.cls-30{clip-path:url(#clip-path-49);}</style><clipPath id="clip-path" transform="translate(0 -534.1)"><path class="cls-1" d="M1157.15,596.94l.5-.25c2.15-1.63-2.73-17.45-11.34-18.63L1012.39,563.9c-8.61-1.19-26,7-28.09,8.64l-.09.21q-13-1.33-26.16-2.54a6.69,6.69,0,0,0,1.35-4.52c-.56-7.17-12.49-13.91-26.58-14.94s-25.25,3.9-24.69,11.05a8.68,8.68,0,0,0,1.8,4.43c-62.84-4.61-128.08-7.16-195-7.44a11.92,11.92,0,0,0,3.62-6.09c1.47-6.74-4.37-12.86-13-13.55s-17,4.15-18.46,10.89a9.69,9.69,0,0,0,2.51,8.78q-61.35.28-120.64,3a8,8,0,0,0-5.11-2.71c-3.55-.57-6.76.83-7.1,3.09v.21q-23,1.17-45.64,2.7a5.57,5.57,0,0,0-.25-3.21c-2.25-5.79-13.8-8.55-25.73-6.07-10.34,2.09-17.71,7.45-18,12.62-77.69,6.54-151.47,16.24-219.88,28.64-5.31-1-13.31-1.84-17.32-1l-88.43,18c-4.88,1-7,4.83-5.92,6.77q-9.61,2.38-19,4.85c1.13-4,.15-8.09-3.48-12-4.51-4.88-22-3.27-39,3.5s-27.08,16.26-22.57,21.12a28.21,28.21,0,0,0,5.25,4.43A205.39,205.39,0,0,1,5,652V881.39H1449V632C1362,618,1270,613,1157.15,596.94Z"/></clipPath><clipPath id="clip-path-2" transform="translate(0 -534.1)"><rect class="cls-1" x="5" width="1440" height="5723"/></clipPath><clipPath id="clip-path-3" transform="translate(0 -534.1)"><path class="cls-1" d="M578.54,747.18a9.77,9.77,0,0,1-1.42,5.92c-4.15,7.43-17,13.57-32.65,14.91-17.31,1.46-32.3-3.44-36.25-11.37a9.07,9.07,0,0,1-1-3.41c-.86-9.84,14.37-19.16,34.08-20.82S577.65,737.31,578.54,747.18Z"/></clipPath><clipPath id="clip-path-5" transform="translate(0 -534.1)"><path class="cls-1" d="M577.15,753.06c-4.15,7.43-17,13.57-32.65,14.91-17.31,1.46-32.3-3.44-36.25-11.37,4.15-7.43,17-13.57,32.69-14.94C558.22,740.25,573.16,745.17,577.15,753.06Z"/></clipPath><clipPath id="clip-path-7" transform="translate(0 -534.1)"><path class="cls-1" d="M283,667.18a18.7,18.7,0,0,1-3.46,10c-8.33,13-31.1,25.36-57.72,30.24-29.44,5.33-53.83-.22-59.08-12.68a12.82,12.82,0,0,1-1.05-5.5c.32-16.15,27.67-34.19,61.19-40.27S283.28,651,283,667.18Z"/></clipPath><clipPath id="clip-path-9" transform="translate(0 -534.1)"><path class="cls-1" d="M279.62,677.16c-8.33,13-31.1,25.36-57.72,30.24-29.44,5.33-53.83-.22-59.08-12.68,8.33-13,31.1-25.36,57.79-30.3C250,659.15,274.3,664.76,279.62,677.16Z"/></clipPath><clipPath id="clip-path-11" transform="translate(0 -534.1)"><path class="cls-1" d="M617,601.65a10.43,10.43,0,0,1-1.42,6.42c-4.36,8-18.21,14.46-35.17,15.61-18.78,1.23-35.16-4.39-39.62-13.09a10.22,10.22,0,0,1-1.13-3.76c-1.13-10.73,15.23-20.6,36.61-22S615.85,590.87,617,601.65Z"/></clipPath><clipPath id="clip-path-13" transform="translate(0 -534.1)"><path class="cls-1" d="M615.64,608c-4.36,8-18.21,14.46-35.17,15.61-18.78,1.23-35.16-4.39-39.62-13.09,4.36-8,18.21-14.46,35.21-15.65C594.79,593.7,611.13,599.35,615.64,608Z"/></clipPath><clipPath id="clip-path-15" transform="translate(0 -534.1)"><path class="cls-1" d="M58.22,631.63c-1.18-1.27,7.77-6.27,20-11.13s23.12-7.8,24.3-6.54-7.77,6.27-20,11.13S59.39,632.91,58.22,631.63Z"/></clipPath><clipPath id="clip-path-17" transform="translate(0 -534.1)"><path class="cls-1" d="M1231.71,680.73a24.78,24.78,0,0,1-6.36,14.28c-13.92,16.55-49.15,24.73-89.06,19-44.18-6.44-79.53-27.68-85.74-50.23a24.62,24.62,0,0,1-.88-9.32c2.47-25.64,45.14-40.56,95.42-33.28S1234.11,655,1231.71,680.73Z"/></clipPath><clipPath id="clip-path-19" transform="translate(0 -534.1)"><path class="cls-1" d="M1225.46,694.95c-13.92,16.55-49.15,24.73-89.06,19-44.18-6.44-79.53-27.68-85.74-50.23,13.92-16.55,49.15-24.73,89.16-19.06C1183.9,651.15,1219.14,672.45,1225.46,694.95Z"/></clipPath><clipPath id="clip-path-21" transform="translate(0 -534.1)"><path class="cls-1" d="M912.06,606.15a9.86,9.86,0,0,1-2.51,5.57c-5.45,6.58-19.23,10.39-34.87,9-17.3-1.59-31.14-9-33.58-17.49a9,9,0,0,1-.35-3.54c1-9.83,17.67-16.35,37.36-14.56S913,596.28,912.06,606.15Z"/></clipPath><clipPath id="clip-path-23" transform="translate(0 -534.1)"><path class="cls-1" d="M909.61,611.7c-5.45,6.58-19.23,10.39-34.87,9-17.3-1.59-31.14-9-33.58-17.49,5.45-6.58,19.23-10.39,34.91-9C893.33,595.8,907.14,603.24,909.61,611.7Z"/></clipPath><clipPath id="clip-path-25" transform="translate(0 -534.1)"><path class="cls-1" d="M842.4,723.81a18.48,18.48,0,0,1-4.9,10.38c-10.5,12.12-36.56,18.53-65.88,15-32.44-4-58.18-18.83-62.4-35a17.22,17.22,0,0,1-.5-6.71c2.2-18.53,33.86-29.88,70.78-25.34S844.55,705.22,842.4,723.81Z"/></clipPath><clipPath id="clip-path-27" transform="translate(0 -534.1)"><path class="cls-1" d="M837.59,734.15c-10.5,12.12-36.56,18.53-65.88,15-32.44-4-58.18-18.83-62.4-35,10.5-12.12,36.56-18.53,66-15C807.62,703.16,833.26,718,837.59,734.15Z"/></clipPath><clipPath id="clip-path-29" transform="translate(0 -534.1)"><path class="cls-1" d="M1047.54,746.48a13.59,13.59,0,0,1-2,8.22c-5.77,10.32-23.65,18.87-45.4,20.73-24.08,2-44.9-4.78-50.41-15.8a12.63,12.63,0,0,1-1.37-4.76c-1.19-13.66,20-26.64,47.38-28.95S1046.3,732.75,1047.54,746.48Z"/></clipPath><clipPath id="clip-path-31" transform="translate(0 -534.1)"><path class="cls-1" d="M1045.61,754.65c-5.77,10.32-23.65,18.87-45.4,20.73-24.08,2-44.9-4.78-50.41-15.8,5.77-10.32,23.65-18.87,45.45-20.77C1019.28,736.84,1040.06,743.68,1045.61,754.65Z"/></clipPath><clipPath id="clip-path-33" transform="translate(0 -534.1)"><path class="cls-1" d="M691.85,835.32a3.43,3.43,0,0,1-.5,2.08c-1.46,2.61-6,4.77-11.48,5.24-6.09.49-11.36-1.21-12.75-4a3.19,3.19,0,0,1-.35-1.2c-.3-3.46,5.06-6.74,12-7.32S691.53,831.85,691.85,835.32Z"/></clipPath><clipPath id="clip-path-35" transform="translate(0 -534.1)"><path class="cls-1" d="M691.35,837.39c-1.46,2.61-6,4.77-11.48,5.24-6.09.49-11.36-1.21-12.75-4,1.46-2.61,6-4.77,11.5-5.25C684.69,832.89,689.95,834.62,691.35,837.39Z"/></clipPath><clipPath id="clip-path-37" transform="translate(0 -534.1)"><path class="cls-1" d="M59.17,631.69c-.94-1,10.82-6.14,20.6-10.07s21.59-8.52,22.54-7.49c2,1-9.31,7.27-19.09,11.22S60.11,632.72,59.17,631.69Z"/></clipPath><clipPath id="clip-path-39" transform="translate(0 -534.1)"><path class="cls-1" d="M476,564.33c3.46-6.28,21.52-9.21,27.54-2.87"/></clipPath><clipPath id="clip-path-41" transform="translate(0 -534.1)"><path class="cls-1" d="M503.55,561.47c-7.52,4.39-26.64,4-27.59,2.93"/></clipPath><clipPath id="clip-path-43" transform="translate(0 -534.1)"><path class="cls-1" d="M709.29,546.45a1.66,1.66,0,0,1-.24,1c-.71,1.27-2.9,2.31-5.57,2.54-2.95.24-5.52-.59-6.18-2a1.55,1.55,0,0,1-.17-.59c-.15-1.68,2.45-3.27,5.81-3.55S709.14,544.77,709.29,546.45Z"/></clipPath><clipPath id="clip-path-45" transform="translate(0 -534.1)"><path class="cls-1" d="M709.06,547.45c-.71,1.27-2.9,2.31-5.57,2.54-2.95.24-5.52-.59-6.18-2,.71-1.27,2.9-2.31,5.57-2.55C705.83,545.27,708.38,546.11,709.06,547.45Z"/></clipPath><clipPath id="clip-path-47" transform="translate(0 -534.1)"><path class="cls-1" d="M946.63,561.42a3.46,3.46,0,0,1-.86,2c-1.9,2.33-6.74,3.69-12.24,3.23-6.08-.53-11-3.11-11.84-6.08a3.18,3.18,0,0,1-.13-1.24c.32-3.46,6.18-5.78,13.11-5.19S946.94,557.95,946.63,561.42Z"/></clipPath><clipPath id="clip-path-49" transform="translate(0 -534.1)"><path class="cls-1" d="M945.79,563.37c-1.9,2.33-6.74,3.69-12.24,3.23-6.08-.53-11-3.11-11.84-6.08,1.9-2.33,6.74-3.69,12.26-3.24C940,557.82,944.9,560.4,945.79,563.37Z"/></clipPath></defs><title>testAsset 4</title><g id="Layer_2" data-name="Layer 2"><g id="Layer_1-2" data-name="Layer 1"><g class="cls-2"><g class="cls-3"><rect class="cls-4" width="1454" height="352.29"/></g></g><g class="cls-5"><g class="cls-3"><rect class="cls-6" x="502.18" y="193.05" width="81.4" height="46.11"/></g></g><g class="cls-7"><g class="cls-3"><rect class="cls-8" x="503.25" y="202.32" width="78.9" height="36.81"/></g></g><g class="cls-9"><g class="cls-3"><rect class="cls-6" x="156.69" y="107.87" width="131.32" height="72.5"/></g></g><g class="cls-10"><g class="cls-3"><rect class="cls-8" x="157.82" y="123.34" width="126.8" height="56.97"/></g></g><g class="cls-11"><g class="cls-3"><rect class="cls-6" x="534.61" y="45.52" width="87.47" height="49.23"/></g></g><g class="cls-12"><g class="cls-3"><rect class="cls-8" x="535.84" y="55.64" width="84.8" height="39.07"/></g></g><g class="cls-13"><g class="cls-3"><rect class="cls-6" x="53.11" y="74.57" width="54.5" height="28.26"/></g></g><g class="cls-14"><g class="cls-3"><rect class="cls-6" x="1044.56" y="80.25" width="192.26" height="106.49"/></g></g><g class="cls-15"><g class="cls-3"><rect class="cls-8" x="1045.66" y="103.78" width="184.79" height="82.89"/></g></g><g class="cls-16"><g class="cls-3"><rect class="cls-6" x="835.71" y="45.72" width="81.39" height="46.17"/></g></g><g class="cls-17"><g class="cls-3"><rect class="cls-8" x="836.17" y="54.8" width="78.45" height="37.07"/></g></g><g class="cls-18"><g class="cls-3"><rect class="cls-6" x="703.59" y="141.99" width="143.93" height="79.04"/></g></g><g class="cls-19"><g class="cls-3"><rect class="cls-8" x="704.31" y="159.03" width="138.28" height="61.96"/></g></g><g class="cls-20"><g class="cls-3"><rect class="cls-6" x="943.33" y="186.46" width="109.26" height="60.22"/></g></g><g class="cls-21"><g class="cls-3"><rect class="cls-8" x="944.8" y="199.37" width="105.81" height="47.26"/></g></g><g class="cls-22"><g class="cls-3"><rect class="cls-6" x="661.76" y="290.93" width="35.1" height="22.69"/></g></g><g class="cls-23"><g class="cls-3"><rect class="cls-8" x="662.12" y="294.2" width="34.23" height="19.42"/></g></g><g class="cls-24"><g class="cls-3"><rect class="cls-8" x="54.12" y="74.89" width="53.42" height="27.89"/></g></g><g class="cls-25"><g class="cls-3"><rect class="cls-6" x="471.02" y="18.82" width="37.54" height="16.41"/></g></g><g class="cls-26"><g class="cls-3"><rect class="cls-8" x="470.97" y="22.36" width="37.59" height="13.61"/></g></g><g class="cls-27"><g class="cls-3"><rect class="cls-6" x="692.13" y="4.77" width="22.17" height="16.17"/></g></g><g class="cls-28"><g class="cls-3"><rect class="cls-8" x="692.31" y="6.36" width="21.75" height="14.58"/></g></g><g class="cls-29"><g class="cls-3"><rect class="cls-6" x="916.54" y="14.88" width="35.1" height="22.7"/></g></g><g class="cls-30"><g class="cls-3"><rect class="cls-8" x="916.7" y="18.09" width="34.09" height="19.5"/></g></g></g></g></svg>