
<svg width="151px" height="360px" viewBox="0 0 151 360" version="1.1" xmlns="http://www.w3.org/2000/svg" xmlns:xlink="http://www.w3.org/1999/xlink">
    
    <desc>Call 911</desc>
    <defs></defs>
    <g id="Page-1" stroke="none" stroke-width="1" fill="none" fill-rule="evenodd" stroke-linecap="round" stroke-linejoin="round">
        <g id="Desktop-HD" transform="translate(-304.000000, -553.000000)" stroke="#000000">
            <path d="M366.233853,564.124489 C363.887438,566.094191 361.309232,567.923 359.439016,570.292915 C356.827163,573.603681 355.437353,578.136617 352.351637,580.765383 C346.163849,586.036957 344.732915,592.815766 344.97265,600.032234 C345.379686,612.291383 343.32815,624.585638 347.717689,636.792362 C352.826434,650.996872 365.590353,655.53683 380.756297,656.876021 C390.2443,657.713426 398.034062,653.801638 405.922428,648.226277 C408.808598,646.186362 412.67614,645.945298 415.796438,644.314021 C432.379297,635.643681 438.802614,620.561511 440.905555,603.08134 C441.539242,597.814915 442.38696,592.155766 441.003692,588.459766 C435.556608,573.903723 417.960598,559.443638 398.779438,557.411213 C397.480287,557.273596 396.171791,557.289979 394.866098,557.254404 C387.422621,557.05266 373.228235,558.251894 366.233853,564.124489 Z" id="Stroke-1" stroke-width="7"></path>
            <path d="M381.814684,845.393132 C382.577818,849.469217 384.246619,852.744409 384.409713,856.844366 C384.583089,861.200834 385.631289,864.711472 388.205756,868.407004 C393.285527,875.699302 397.41804,883.647387 402.14405,891.197132 C403.562834,893.462664 405.493334,895.476366 407.461687,897.312196 C411.680655,901.246451 416.077671,904.989728 420.401318,908.811174" id="Stroke-3" stroke-width="7"></path>
            <path d="M450.923313,707.037426 C431.59261,709.585213 412.217045,711.843255 392.958309,714.85117 C386.937355,715.792021 381.171558,718.599596 375.394545,720.828149 C364.313447,725.10317 354.722166,720.443851 342.559689,720.414362 C335.949443,720.398447 325.806725,722.203851 319.193675,723.222872" id="Stroke-5" stroke-width="7"></path>
            <path d="M390.642644,656.593953 C391.79786,667.583655 388.792056,678.045357 387.037736,688.728932 C385.517543,697.988591 385.810085,707.546889 385.301174,716.973187 C385.301174,716.973187 383.065981,733.787272 383.046821,740.666251 C382.965507,770.218804 383.059906,799.772294 382.965507,829.324847 C382.949618,834.304804 382.318736,839.282889 381.901419,845.272038 C371.510553,854.074379 360.516376,862.733485 350.300755,872.232804 C340.874438,880.998166 330.814902,890.116464 319.193582,894.542209 C314.223631,896.435145 312.183778,897.818804 308.23352,899.639655" id="Stroke-7" stroke-width="7"></path>
            <path d="M405.180697,622.584621 C402.844096,628.669728 401.844498,631.010153 391.628409,631.010153 C388.576341,631.010153 378.076122,630.542068 378.076122,624.456962" id="Stroke-9" stroke-width="7"></path>
            <path d="M384.151285,584.90377 C384.151285,585.550196 383.628354,586.073983 382.982985,586.073983 C382.337615,586.073983 381.814684,585.550196 381.814684,584.90377 C381.814684,584.257345 382.337615,583.733557 382.982985,583.733557 C383.628354,583.733557 384.151285,584.257345 384.151285,584.90377 Z" id="Stroke-13" stroke-width="4" fill="#000000"></path>
            <path d="M404.713377,583.499515 C404.713377,584.14594 404.190445,584.669728 403.545076,584.669728 C402.899707,584.669728 402.376775,584.14594 402.376775,583.499515 C402.376775,582.853089 402.899707,582.329302 403.545076,582.329302 C404.190445,582.329302 404.713377,582.853089 404.713377,583.499515 Z" id="Stroke-17" stroke-width="4" fill="#000000"></path>
        </g>
    </g>
</svg>