<svg xmlns="http://www.w3.org/2000/svg" viewBox="0 0 318.18 149.35"><defs><style>.cls-1{isolation:isolate;}.cls-2{fill:#d6770f;}.cls-3{fill:#d5cf3b;}.cls-12,.cls-3{opacity:0.5;}.cls-4{fill:#d3cc92;}.cls-5{fill:#ce4d1f;}.cls-6{fill:#5089a6;}.cls-7{fill:#1c8796;}.cls-16,.cls-7{opacity:0.7;mix-blend-mode:multiply;}.cls-8{fill:#0b1d3c;}.cls-9{fill:#cfcfcf;}.cls-10{fill:#f15a24;}.cls-11{fill:#f98b12;}.cls-12{fill:#f8f145;}.cls-13{fill:#f6eeaa;}.cls-14{fill:#61a6c9;}.cls-15{fill:none;}.cls-16{fill:#22a7b9;}.cls-17{fill:#112e5f;}.cls-18{fill:#f2f2f2;}</style></defs><title>Starship2</title><g class="cls-1"><g id="Layer_2" data-name="Layer 2"><path class="cls-2" d="M1385.94,277.26c-5.58.45-13.19,1.76-38.51,10,1.4,0.64,4.86.21,6.49,0.22-5.17,1.53-48.34,18.8-56.56,22.37,9-2,65.11-13.27,67.68-14.66-0.94.61-3,2.52-3.94,3.14,10.33-1.75,24.35-9,27.66-12.23Zm-17.34,15.6L1314,304.65s33.14-14.79,47.81-18l-11.21.3s22.36-6.39,32.28-8.41l3.41,7.17s-4,4.62-21.48,10.57Z" transform="translate(-1292.02 -184.07)"/><path class="cls-2" d="M1382.87,278.52c-9.92,2-32.28,8.41-32.28,8.41l11.21-.3c-14.67,3.22-47.81,18-47.81,18l54.6-11.78-3.8,3.39c17.52-6,21.48-10.57,21.48-10.57Zm-48.58,19.84s35.79-13.25,47.4-17.85l1.14,5S1350.48,295.82,1334.29,298.35Z" transform="translate(-1292.02 -184.07)"/><path class="cls-3" d="M1382.87,278.52c-9.92,2-32.28,8.41-32.28,8.41l11.21-.3c-14.67,3.22-47.81,18-47.81,18l54.6-11.78-3.8,3.39c17.52-6,21.48-10.57,21.48-10.57Zm-48.58,19.84s35.79-13.25,47.4-17.85l1.14,5S1350.48,295.82,1334.29,298.35Z" transform="translate(-1292.02 -184.07)"/><path class="cls-4" d="M1334.29,298.35c16.2-2.54,48.53-12.86,48.53-12.86l-1.14-5C1370.08,285.1,1334.29,298.35,1334.29,298.35Z" transform="translate(-1292.02 -184.07)"/><path class="cls-5" d="M1398.05,270.62q-0.2-.67-0.41-1.34l-0.22-.63-0.27.07-4.26,1.36c-2.47.79-3.65,4-2.64,7.19l2.44,7.62c1,3.18,3.85,5.12,6.32,4.33l2.41-.77a89.71,89.71,0,0,0-3.37-17.79l-0.26.07Z" transform="translate(-1292.02 -184.07)"/><path class="cls-5" d="M1496.33,287.69A237.5,237.5,0,0,1,1439,298.47l-18,34.95,56.46-18.06C1485.5,312.77,1492.51,297.64,1496.33,287.69Z" transform="translate(-1292.02 -184.07)"/><path class="cls-6" d="M1499.44,286.72a235,235,0,0,0,62.5-31.12,261,261,0,0,0-9.4-36.57l-9.29,3a26.77,26.77,0,0,1-51,16.31l-7.91,2.53A20.09,20.09,0,1,1,1446.42,253l-8.49,2.71a14.17,14.17,0,1,1-25.25,8.07l-15.27,4.88v0h0c0.07,0.21.13,0.42,0.19,0.64s0.16,0.46.24,0.7,0.13,0.42.2,0.63v0a89.85,89.85,0,0,1,4,19.8q0.29,3.36.32,6.7a185.47,185.47,0,0,0,36.57,1.32,237.5,237.5,0,0,0,57.36-10.78C1497.37,287.37,1498.4,287.06,1499.44,286.72Z" transform="translate(-1292.02 -184.07)"/><path class="cls-6" d="M1567.81,251.24c16.28-12.53,29.05-26.56,37.31-40.94-8.2,14.28-20.87,28.2-37,40.66Z" transform="translate(-1292.02 -184.07)"/><path class="cls-7" d="M1562.05,256.3l5.76-5.06q-2.87,2.21-5.88,4.36Z" transform="translate(-1292.02 -184.07)"/><path class="cls-6" d="M1558.26,217.19l-5.74,1.83a261,261,0,0,1,9.4,36.57q3-2.15,5.88-4.36l0.32-.28Q1563.85,234.29,1558.26,217.19Z" transform="translate(-1292.02 -184.07)"/><path class="cls-7" d="M1558.26,217.19l-5.74,1.83a261,261,0,0,1,9.4,36.57q3-2.15,5.88-4.36l0.32-.28Q1563.85,234.29,1558.26,217.19Z" transform="translate(-1292.02 -184.07)"/><path class="cls-5" d="M1568.13,251c16.11-12.46,28.78-26.38,37-40.66l0.15-.26c0.54-.94,1-1.88,1.54-2.82l0.28-.51c0.46-.89.89-1.78,1.32-2.67,0.1-.22.22-0.43,0.32-0.65,0.43-.91.82-1.81,1.21-2.72l-51.68,16.53Q1563.88,234.26,1568.13,251Z" transform="translate(-1292.02 -184.07)"/><path class="cls-8" d="M1523.4,247.32a18.61,18.61,0,0,1-23.36-11.5l-7.79,2.49a26.77,26.77,0,0,0,51-16.31l-7.8,2.49A18.61,18.61,0,0,1,1523.4,247.32Z" transform="translate(-1292.02 -184.07)"/><path class="cls-9" d="M1523.4,247.32a18.61,18.61,0,0,0,12-22.82L1500,235.81A18.61,18.61,0,0,0,1523.4,247.32Z" transform="translate(-1292.02 -184.07)"/><path class="cls-6" d="M1485.23,243a20.17,20.17,0,0,0-.89-2.21l-5.91,1.89-26.12,8.35-5.89,1.88A20.07,20.07,0,1,0,1485.23,243Z" transform="translate(-1292.02 -184.07)"/><path class="cls-6" d="M1440.29,260a14,14,0,0,0-2.35-4.34l-4.54,1.45-16.16,5.17-4.54,1.45A14.17,14.17,0,1,0,1440.29,260Z" transform="translate(-1292.02 -184.07)"/><path class="cls-10" d="M1397.44,268.61c-0.07-.21-0.13-0.42-0.2-0.63a89.83,89.83,0,0,0-8.1-17.79l-2.36.76c-2.47.79-3.65,4-2.64,7.19l2.44,7.62c1,3.18,3.85,5.12,6.32,4.33l4.26-1.36Z" transform="translate(-1292.02 -184.07)"/><path class="cls-10" d="M1435.86,185.39l-56.46,18.06,35.79,18.44A238.52,238.52,0,0,1,1467.35,197C1458.48,191.09,1444,182.8,1435.86,185.39Z" transform="translate(-1292.02 -184.07)"/><path class="cls-11" d="M1380.24,259.46c-4.59-.74-20.2,1.53-29.63,6.09,1.14-.05,3.91.32,5,0.27-2.9.36-55.17,23.76-63.63,27.33,8.77-1.85,54-12.84,59-14.6-1.32,1-4.38,2.61-5.15,3.94,25.38-8,32.34-11.37,37.14-14.24ZM1358,274.63c-13.82,5.88-49.39,13.07-49.39,13.07l51.3-22.08-5.06-.56c17.73-5.32,23.63-3.85,23.63-3.85l1.38,7.82c-9.25,4.11-31.17,11.88-31.17,11.88Z" transform="translate(-1292.02 -184.07)"/><path class="cls-11" d="M1378.45,261.21s-5.9-1.47-23.63,3.85l5.06,0.56-51.3,22.08s35.58-7.18,49.39-13.07l-9.3,6.27s21.92-7.76,31.17-11.88Zm-49.7,19.85c14.66-7.33,47-17.69,47-17.69l2,4.72C1365.6,271.08,1328.76,281.06,1328.76,281.06Z" transform="translate(-1292.02 -184.07)"/><path class="cls-12" d="M1378.45,261.21s-5.9-1.47-23.63,3.85l5.06,0.56-51.3,22.08s35.58-7.18,49.39-13.07l-9.3,6.27s21.92-7.76,31.17-11.88Zm-49.7,19.85c14.66-7.33,47-17.69,47-17.69l2,4.72C1365.6,271.08,1328.76,281.06,1328.76,281.06Z" transform="translate(-1292.02 -184.07)"/><path class="cls-13" d="M1328.76,281.06s36.84-10,49-13l-2-4.72S1343.42,273.72,1328.76,281.06Z" transform="translate(-1292.02 -184.07)"/><path class="cls-14" d="M1603.77,196.61c0.88,0.43,1.74.88,2.6,1.34C1605.52,197.5,1604.65,197,1603.77,196.61Z" transform="translate(-1292.02 -184.07)"/><path class="cls-14" d="M1600.33,195c1,0.43,1.92.88,2.87,1.33C1602.26,195.89,1601.3,195.44,1600.33,195Z" transform="translate(-1292.02 -184.07)"/><path class="cls-15" d="M1398.08,270.61c-0.07-.21-0.13-0.42-0.2-0.63s-0.16-.46-0.24-0.7q0.21,0.67.41,1.34h0Z" transform="translate(-1292.02 -184.07)"/><path class="cls-15" d="M1398.05,270.62v0h0v0h0Z" transform="translate(-1292.02 -184.07)"/><path class="cls-10" d="M1397.8,270.72l0.26-.07v0Z" transform="translate(-1292.02 -184.07)"/><path class="cls-14" d="M1422.4,251a14.19,14.19,0,0,1,15.54,4.68l8.49-2.71a20.07,20.07,0,0,1,37.92-12.13l7.91-2.53-0.1-.29A26.78,26.78,0,1,1,1543,221.27c0.08,0.24.15,0.49,0.22,0.73l9.29-3a366.93,366.93,0,0,0-13.42-34.87h7c16.51,0.37,31.77,2.85,45,7.31-32.17-10.87-76.38-10.12-121.5,4.73-0.77.25-1.52,0.53-2.29,0.79a238.52,238.52,0,0,0-52.17,24.92,186.18,186.18,0,0,0-29.81,23.55c1.56,2.16,3,4.42,4.4,6.74a89.91,89.91,0,0,1,7.64,16.44l15.27-4.88A14.18,14.18,0,0,1,1422.4,251Z" transform="translate(-1292.02 -184.07)"/><path class="cls-14" d="M1591.44,191.56q1.36,0.46,2.7,1C1593.25,192.19,1592.35,191.87,1591.44,191.56Z" transform="translate(-1292.02 -184.07)"/><path class="cls-14" d="M1594.84,192.78c0.76,0.29,1.52.57,2.26,0.87C1596.36,193.36,1595.6,193.07,1594.84,192.78Z" transform="translate(-1292.02 -184.07)"/><path class="cls-14" d="M1397.45,268.64h0l0.22,0.63C1397.58,269.07,1397.52,268.86,1397.45,268.64Z" transform="translate(-1292.02 -184.07)"/><path class="cls-14" d="M1558.26,217.19c-3.75-11.38-7.82-22.4-12.12-33h-7A366.93,366.93,0,0,1,1552.53,219l5.74-1.83h0Z" transform="translate(-1292.02 -184.07)"/><path class="cls-16" d="M1558.26,217.19c-3.75-11.38-7.82-22.4-12.12-33h-7A366.93,366.93,0,0,1,1552.53,219l5.74-1.83h0Z" transform="translate(-1292.02 -184.07)"/><path class="cls-10" d="M1558.26,217.19h0l51.68-16.53,0.26-.58q-1.54-.92-3.14-1.78l-0.69-.36c-0.86-.45-1.72-0.9-2.6-1.34l-0.57-.27c-0.94-.45-1.9-0.9-2.87-1.33l-0.31-.13q-1.43-.63-2.91-1.22c-0.75-.3-1.5-0.59-2.26-0.87l-0.7-.27q-1.33-.49-2.7-1l-0.3-.11c-13.22-4.46-28.49-6.94-45-7.31C1550.44,194.79,1554.52,205.81,1558.26,217.19Z" transform="translate(-1292.02 -184.07)"/><path class="cls-10" d="M1597.1,193.66q1.47,0.59,2.91,1.22Q1598.58,194.25,1597.1,193.66Z" transform="translate(-1292.02 -184.07)"/><path class="cls-10" d="M1591.14,191.46l0.3,0.11Z" transform="translate(-1292.02 -184.07)"/><path class="cls-10" d="M1594.14,192.52l0.7,0.27Z" transform="translate(-1292.02 -184.07)"/><path class="cls-17" d="M1509.21,204.2A26.81,26.81,0,0,0,1492.15,238l0.1,0.29,7.79-2.49c0-.12-0.1-0.23-0.14-0.35a18.61,18.61,0,1,1,35.34-11.63c0.07,0.22.12,0.45,0.18,0.67l7.8-2.49c-0.07-.24-0.14-0.49-0.22-0.73A26.81,26.81,0,0,0,1509.21,204.2Z" transform="translate(-1292.02 -184.07)"/><path class="cls-18" d="M1535.26,223.83a18.61,18.61,0,1,0-35.34,11.63c0,0.12.09,0.23,0.14,0.35l35.39-11.32C1535.38,224.27,1535.33,224,1535.26,223.83Z" transform="translate(-1292.02 -184.07)"/><path class="cls-14" d="M1459.88,230.25A20.1,20.1,0,0,0,1446.42,253l5.89-1.88,26.12-8.35,5.91-1.89A20.11,20.11,0,0,0,1459.88,230.25Z" transform="translate(-1292.02 -184.07)"/><path class="cls-14" d="M1422.4,251a14.18,14.18,0,0,0-9.71,12.76l4.54-1.45,16.16-5.17,4.54-1.45A14.19,14.19,0,0,0,1422.4,251Z" transform="translate(-1292.02 -184.07)"/></g></g></svg>