<svg xmlns="http://www.w3.org/2000/svg" viewBox="0 0 280.28 399.88"><defs><style>.cls-1,.cls-3{fill:none;}.cls-1,.cls-2,.cls-3{stroke:#000;stroke-width:7px;}.cls-1{stroke-miterlimit:10;}.cls-2{fill:#fff;}.cls-2,.cls-3{stroke-linecap:round;stroke-linejoin:round;}</style></defs><title>happyAsset 19</title><g id="Layer_2" data-name="Layer 2"><g id="Exited"><path class="cls-1" d="M275.18,70.21c-11.66-31.1-49.31-62-90.35-66.33-2.78-.29-5.58-.26-8.37-.33-15.93-.43-46.3,2.13-61.27,14.68-5,4.21-10.54,8.12-14.54,13.18-5.59,7.07-8.56,16.76-15.17,22.37C72.24,65,69.18,79.52,69.69,94.93c.87,26.19-3.52,52.45,5.87,78.53,10.93,30.35,38.24,40,70.7,42.91,20.3,1.79,37-6.57,53.85-18.48,6.18-4.36,14.45-4.87,21.13-8.36C256.73,171,270.47,138.79,275,101.45c1.36-11.25,3.17-23.34.21-31.24"/><path class="cls-2" d="M206,116.61c-.68,5.64-2.5,47.5-12.5,51.5-14,3-42,6-48,3-12-6-17.2-27-16.82-37.51-1.37-1.62,17.23,2.48,36.32,2s41.09-14.64,41-19"/><path class="cls-3" d="M213.53,98.11c-.53-6.38-2.33-10.19-6-10.1s-8,7.1-8,7.1"/><path class="cls-3" d="M128.19,89.7c1.33-4.95,2.73-10.78,6.31-9.94s7,8.35,7,8.35"/><path class="cls-3" d="M270,199.61c8.25-2.25-42.5,58.5-46.5,62.5-4,3-72.22,47.46-82.5,40.5-11.86,4.57-31.48-3.31-48.64-12.7a309.61,309.61,0,0,1-33.86-21.8c-4-3-20.25-25.5-34.06-46.44S-.72,181.36,5,184.61"/><path class="cls-3" d="M152.42,216.77c2.47,23.48-4,45.83-7.71,68.65-3.25,19.78-2.63,40.2-3.72,60.34,0,0-4.78,35.92-4.82,50.62"/></g></g></svg>