<svg xmlns="http://www.w3.org/2000/svg" viewBox="0 0 238.79 423.31"><defs><style>.cls-1{fill:none;}.cls-1,.cls-2,.cls-3{stroke:#000;stroke-linecap:round;stroke-linejoin:round;stroke-width:7px;}.cls-2{fill:#fff;}</style></defs><title>hello3_Asset 14</title><g id="Layer_2" data-name="Layer 2"><g id="Hello_face" data-name="Hello face"><path class="cls-1" d="M234.81,152.81c-17-4-15,82-40,105-21,18-44.55-1.1-65.15,2.12-6.44,1-7.61,2.54-13.85,4.88-4.64,1.74-4-5-57,4-16.49,2.8-59.34,55.84-55,72,11.07,41.23,77.26,19.25,67,24"/><path class="cls-1" d="M29.87,397.66"/><path class="cls-2" d="M63.46,275.47C71,260.62,67,256.13,67,256.13l-22.92,2.43-6.94.74L43.43,272l5.45,5s-3.65,5.3-13.33,13.35-12.09,11.81-15,17.74c-1.22,2.51-19,24.82-12.15,37.8,10.54,20,29.34,38.33,41.84,37s8.48.51,26.24-4.18c12.56-3.32,21.42-2.9,27.77-16.28s5.87-20.28,3.12-36.85c-1.94-11.73-1.59-21.6-22-34.89-17.27-11.27-4.61-3.73-14.3-9S63.46,275.47,63.46,275.47Z"/><path d="M71.35,315.81c-1.9-4.31-6.24-4.54-11.24-3.36l-2-6.18-3.76,1.24,2,6c-1,.33-2,.68-3,1l-2-6.05-3.76,1.24,2,6.18L42,318.45l1.33,4s2.76-1,2.73-.9a2,2,0,0,1,2.71.93l5.6,16.93a1.4,1.4,0,0,1-1,1.71c.06,0-2.74.9-2.74.9l.74,4.75L59,344.3,61,350.55l3.76-1.24-2-6.19c1-.32,2-.64,3-1l2,6.16,3.76-1.24-2.06-6.24c6.2-2.45,10.1-5.51,8.69-11.63-1.14-4.93-4.09-6.32-8-6,1.81-1.83,2.53-4.24,1.13-7.4m-.85,15.1c1.54,4.67-6.63,6.78-9.18,7.63l-2.74-8.28c2.55-.84,10.3-4.22,11.91.65m-5.61-11.11c1.4,4.25-5.43,6-7.55,6.66L54.85,319c2.13-.7,8.57-3.58,10,.85"/><path class="cls-1" d="M89.81,13.81c-16.41,5.73-32,33-45,58-12.09,23.25-20.36,56.27-11,82.35,10.93,30.35,38.24,40,70.7,42.91,20.3,1.79,68.3-23.35,75-26.84,35.49-18.52,49.23-50.74,53.73-88.09,1.36-11.25,3.51-34.44.55-42.33-11.66-31.1-46-30.66-87-35C144,4.51,132.81-1.19,89.81,13.81Z"/><path class="cls-1" d="M125.7,196.46c2.47,23.48-4,45.83-7.71,68.65-3.25,19.78-2.63,40.2-3.72,60.34,0,0-4.42,79.65-4.46,94.35"/><path class="cls-1" d="M150.81,122.81c-6,5-.14,9-22,9-6.53,0-13,2-19-9"/><circle class="cls-3" cx="121.31" cy="66.31" r="2.5"/><circle class="cls-3" cx="149.31" cy="67.31" r="2.5"/><path class="cls-1" d="M104.78,16.19"/><path class="cls-1" d="M89.5,26.16"/><path class="cls-1" d="M5.81,338.81c.5,16.72,26,27,48,21"/></g></g></svg>