<svg xmlns="http://www.w3.org/2000/svg" viewBox="0 0 203.54 382.44"><defs><style>.cls-1{fill:none;}.cls-1,.cls-2{stroke:#000;stroke-linecap:round;stroke-linejoin:round;stroke-width:7px;}</style></defs><title>pointingAsset 17</title><g id="Layer_2" data-name="Layer 2"><g id="Example"><path class="cls-1" d="M171.5,28.67c16.75,20.56,36.34,100.64,25.34,126.11-13.34,30.89-13.06,30.85-45.34,39.89-20.2,5.66-28.88,12.6-48.33,4.15-7.12-3.09-15.59-2-23-4.14C40.54,183.32,35.91,152.52,24,116.74c-3.6-10.78-3.44-28.74-2-37.06,5.64-32.76,17.57-62,58.26-74.19,2.76-.82,5.53-1.88,8.41-1.94C131.15,2.67,159.15,13.52,171.5,28.67Z"/><path class="cls-1" d="M3.5,247.67c24-2,26,7,60,3,13.17-1.55,30.14-.76,42.89,4,44.45-2.43,39.64-1.26,53.63,1,12.38,2-22.13,54.82-7.53,57"/><path class="cls-1" d="M101.35,199.33c-2.55,23.48,4.08,45.83,8,68.65,3.36,19.78,2.71,40.2,3.83,60.34,0,0,4.93,35.92,5,50.62"/><path class="cls-2" d="M84.58,91.74a2.47,2.47,0,0,0,1.17,3.35A2.62,2.62,0,0,0,89.21,94,2.47,2.47,0,0,0,88,90.6,2.62,2.62,0,0,0,84.58,91.74Z"/><path class="cls-2" d="M52.7,99.77A2.5,2.5,0,1,0,50,97.44,2.53,2.53,0,0,0,52.7,99.77Z"/><path class="cls-1" d="M106.24,111.3A205.46,205.46,0,0,1,102.37,134,34.13,34.13,0,0,1,98,143.92a16.74,16.74,0,0,1-6.27,5.7c-2.4,1.2-9.94,1.4-10.84,1.36s-7.21-.49-8.11-.64c-2.28-.37-5-.39-7-2.8s-3.34-7.21-2.9-17.14c-.73-1.48,9.52,1.66,20.15.45s23.17-15.45,23.21-19.55"/></g></g></svg>