<svg xmlns="http://www.w3.org/2000/svg" viewBox="0 0 223.08 386.18"><defs><style>.cls-1{fill:none;}.cls-1,.cls-2{stroke:#000;stroke-linecap:round;stroke-linejoin:round;stroke-width:7px;}</style></defs><title>point_upAsset 39</title><g id="Layer_2" data-name="Layer 2"><g id="Example"><path class="cls-1" d="M218.55,67c5.67,25.91-13,106.21-34.3,124-25.85,21.55-25.58,21.64-58.47,15.14-20.58-4.07-31.46-1.79-45-18.11-5-6-13-8.83-18.69-14.1-30.2-28-20.43-57.57-14.95-94.9C48.8,67.7,57,51.75,62.08,45,81.89,18.29,105.76-2.47,147.55,5.06c2.83.51,5.78.82,8.38,2.07C194.28,25.54,214.37,47.86,218.55,67Z"/><path class="cls-1" d="M3.5,142.41c7,50,26,113,60,109,11.14-1.31,29.51-1,42.89,4,44.45-2.43,39.64-1.26,53.63,1,12.38,2-36.53,64-45.53,54"/><path class="cls-1" d="M101.35,203.07c-2.56,23.61,4.05,45.64,8,68.65,3.36,19.78,2.71,40.2,3.83,60.34,0,0,4.93,35.92,5,50.62"/><path class="cls-2" d="M113.53,68a2.47,2.47,0,0,0-.46,3.52,2.62,2.62,0,0,0,3.59.54,2.47,2.47,0,0,0,.46-3.52A2.62,2.62,0,0,0,113.53,68Z"/><path class="cls-2" d="M84.45,60.78a2.5,2.5,0,1,0-1.4-3.32A2.53,2.53,0,0,0,84.45,60.78Z"/><path class="cls-1" d="M123,111.24a205.46,205.46,0,0,1-13.73,18.55,34.13,34.13,0,0,1-8.36,6.83,16.74,16.74,0,0,1-8.17,2.26c-2.69,0-9.5-3.23-10.29-3.68s-6.21-3.7-6.95-4.23c-1.87-1.36-4.26-2.59-5-5.65s.27-7.95,5.14-16.6c0-1.65,7.75,5.77,17.78,9.49s27.65-3.33,29.54-7"/></g></g></svg>