<svg xmlns="http://www.w3.org/2000/svg" viewBox="0 0 292.7 758.1"><defs><style>.cls-1{fill:#fff;}.cls-1,.cls-2,.cls-3{stroke:#000;stroke-linecap:round;stroke-linejoin:round;stroke-width:7px;}.cls-2{fill:none;}</style></defs><title>testAsset 28</title><g id="Layer_2" data-name="Layer 2"><g id="Sad"><path class="cls-1" d="M127.61,18.22c-5,4.21-10.54,8.12-14.54,13.18-5.59,7.07-8.56,16.76-15.17,22.37C84.67,65,81.6,79.52,82.12,94.93,83,121.12,78.6,147.39,88,173.47c10.93,30.35,38.24,40,70.7,42.91,20.3,1.79,37-6.57,53.85-18.48,6.18-4.36,14.45-4.87,21.13-8.36,35.49-18.52,49.23-50.74,53.73-88.09,1.36-11.25,3.17-23.34.21-31.24C276,39.11,238.3,8.22,197.25,3.88c-2.78-.29-5.58-.26-8.37-.33C173,3.11,142.58,5.67,127.61,18.22Z"/><path class="cls-2" d="M161,619.11c1.63,8.71,5.2,15.7,5.55,24.46.37,9.31,2.61,16.81,8.12,24.7,10.87,15.58,19.71,32.56,29.83,48.69A67.37,67.37,0,0,0,215.83,730c9,8.41,18.44,16.4,27.69,24.57"/><path class="cls-2" d="M189,471.11c-3-73-8.14-131.26-20.5-126.5-23.71,9.13-8.5,24.5-22.5,56.5-12.22,27.92-14,68-14,79"/><path class="cls-2" d="M179.84,215.77c2.47,23.48-4,45.83-7.71,68.65-3.25,19.78-2.63,40.2-3.72,60.34,0,0-4.78,35.92-4.82,50.62-.17,63.13,0,126.27-.17,189.41,0,10.64-1.38,21.28-2.28,34.07-22.23,18.8-45.76,37.3-67.62,57.6C73.35,695.18,51.82,714.66,27,724.11c-10.64,4-15,7-23.45,10.89"/><path class="cls-2" d="M142.22,169.53c3-22.54,15.56-33,37.33-31,6.5.61,13,.92,19.5,1.88,16.48,2.44,19,5.61,19.17,23.05"/><circle class="cls-3" cx="157.45" cy="107.61" r="2.5"/><circle class="cls-3" cx="214.45" cy="116.61" r="2.5" transform="translate(-19.65 185.8) rotate(-45)"/></g></g></svg>