<svg xmlns="http://www.w3.org/2000/svg" viewBox="0 0 277.5 758.1"><defs><style>.cls-1{fill:#fff;}.cls-1,.cls-2{stroke:#000;stroke-linecap:round;stroke-linejoin:round;stroke-width:7px;}.cls-2{fill:none;}</style></defs><title>testAsset 27</title><g id="Layer_2" data-name="Layer 2"><g id="Exited"><path class="cls-1" d="M264.16,70.21c-11.66-31.1-49.31-62-90.35-66.33-2.78-.29-5.58-.26-8.37-.33-15.93-.43-46.3,2.13-61.27,14.68-5,4.21-10.54,8.12-14.54,13.18C84,38.47,81.06,48.16,74.45,53.77,61.21,65,58.15,79.52,58.66,94.93c.87,26.19-3.52,52.45,5.87,78.53,10.93,30.35,38.24,40,70.7,42.91,20.3,1.79,37-6.57,53.85-18.48,6.18-4.36,14.45-4.87,21.13-8.36,35.49-18.52,49.23-50.74,53.73-88.09,1.36-11.25,3.17-23.34.21-31.24"/><path class="cls-2" d="M137.5,619.11c1.63,8.71,5.2,15.7,5.55,24.46.37,9.31,2.61,16.81,8.12,24.7C162,683.86,170.89,700.84,181,717A67.37,67.37,0,0,0,192.38,730c9,8.41,18.44,16.4,27.69,24.57"/><path class="cls-2" d="M274,241.61c-11.88,49.69-108.44,116.92-129,103-23.71,9.13-53.34-37.56-75-52-27-18-56-51-61-66"/><path class="cls-2" d="M156.39,215.77c2.47,23.48-4,45.83-7.71,68.65-3.25,19.78-2.63,40.2-3.72,60.34,0,0-4.78,35.92-4.82,50.62-.17,63.13,0,126.27-.17,189.41,0,10.64-1.38,21.28-2.28,34.07-22.23,18.8-45.76,37.3-67.62,57.6-20.17,18.73-41.7,38.21-66.56,47.66"/><path class="cls-1" d="M195,116.61c-.68,5.64-4.14,19.73-6,23.87a28.71,28.71,0,0,1-7.47,10.15,27.26,27.26,0,0,1-11.05,5.58c-4.28,1.1-17.85.73-19.48.62s-13-1.07-14.63-1.29c-4.13-.56-9-.79-12.71-3.51s-6.33-7.92-6-18.42c-1.37-1.62,17.23,2.48,36.32,2s41.09-14.64,41-19"/><path class="cls-2" d="M193,66.06c-6.4-.21-13.88-.62-14.21,3S191.6,79.33,191.6,79.33"/><path class="cls-2" d="M116,62.06c5.12-.21,11.1-.62,11.37,3S117.1,75.33,117.1,75.33"/></g></g></svg>