<svg xmlns="http://www.w3.org/2000/svg" viewBox="0 0 239.5 714.86"><defs><style>.cls-1{fill:#fff;}.cls-1,.cls-2,.cls-3{stroke:#000;stroke-linecap:round;stroke-linejoin:round;stroke-width:7px;}.cls-2{fill:none;}</style></defs><title>testAsset 31</title><g id="Layer_2" data-name="Layer 2"><g id="Layer_9" data-name="Layer 9"><path class="cls-1" d="M87.52,52.89c-9.66,20-15.41,74.09-3.15,94.51,14.27,23.76,15.79,32.72,48.92,32.29,20.72-.27,36.7-8.49,52.51-19.62,5.79-4.07,14.1-5.2,20.49-8.6,33.93-18.09,29.11-43.26,29.71-74,.18-9.27-5.32-23.28-9.15-29.45-15.08-24.31-35.06-44.45-77-44.49-2.84,0-5.67.26-8.5.44C125.15,4.95,94.64,38.17,87.52,52.89Z"/><path class="cls-2" d="M186.17,160.07c-19.32,13.09,39.88,110.1-2,115.36-13.1,1.64-38.28-54.62-50.85-50.73-43.82-2-68.4,39.89-72.2,50.73-3.91,11.14,131.34,2.31,116.95,4.09"/><path class="cls-2" d="M207.64,90.07c-4.12,10.9-7.88,14.4-14.61,18.9-5.11,3.41-13.54,8.17-20.43-.45"/><path class="cls-3" d="M156.76,65.52a2.26,2.26,0,0,1-2.39,2.16,2.41,2.41,0,0,1-2.69-1.92,2.26,2.26,0,0,1,2.39-2.16A2.41,2.41,0,0,1,156.76,65.52Z"/><path class="cls-3" d="M180.45,52.68a1.88,1.88,0,0,1-1.14-2.74,2.86,2.86,0,0,1,3.41-.91,1.88,1.88,0,0,1,1.14,2.74A2.86,2.86,0,0,1,180.45,52.68Z"/></g><g id="TRUMP"><path class="cls-2" d="M133.5,179.87s-9,102-16.36,180.27"/><path class="cls-2" d="M114.5,575.87c1.63,8.71,5.2,15.7,5.55,24.46.37,9.31,2.61,16.81,8.12,24.7C139,640.62,147.89,657.6,158,673.73a67.37,67.37,0,0,0,11.38,13.06c9,8.41,18.44,16.4,27.69,24.57"/><path class="cls-2" d="M117.5,359.87c0,25-2.68,169.86-2.81,215.74-22.23,18.8-42.19,38.26-68.19,69.26-16,20-34.55,46.11-43,50"/></g></g></svg>