<svg xmlns="http://www.w3.org/2000/svg" viewBox="0 0 231.18 430.37"><defs><style>.cls-1{fill:#fff;}.cls-1,.cls-2,.cls-3{stroke:#000;stroke-linecap:round;stroke-linejoin:round;stroke-width:7px;}.cls-2{fill:none;}</style></defs><title>testAsset 36</title><g id="Layer_2" data-name="Layer 2"><g id="TRUMP"><path class="cls-1" d="M37.48,66.78c-12.37,25.6-19.74,94.91-4,121.07,18.28,30.44,20.23,41.92,62.67,41.36,26.55-.35,47-10.88,67.27-25.14,7.41-5.22,18.06-6.66,26.24-11,43.47-23.18,37.29-55.42,38.05-94.83.23-11.88-6.82-29.82-11.72-37.73C196.63,29.34,171,3.55,117.27,3.5c-3.64,0-7.26.34-10.89.56C85.67,5.35,46.6,47.91,37.48,66.78Z"/><path class="cls-2" d="M163.84,204.08c-24.75,16.77,51.08,141-2.61,147.78-16.78,2.11-49-70-65.14-65C40,284.33,8.48,338,3.61,351.86c-5,14.27,168.25,3,149.82,5.24"/><path class="cls-2" d="M191.36,114.4c-5.27,14-10.09,18.45-18.72,24.21-6.55,4.37-17.34,10.47-26.18-.58"/><path class="cls-3" d="M126.17,82.95c.11,1.44-1.26,2.69-3.06,2.77s-3.34-1-3.44-2.46,1.26-2.69,3.06-2.77S126.06,81.5,126.17,82.95Z"/><path class="cls-3" d="M156.52,66.5c-1.61-.65-2.26-2.22-1.45-3.52a3.66,3.66,0,0,1,4.37-1.17c1.61.65,2.26,2.22,1.45,3.52A3.66,3.66,0,0,1,156.52,66.5Z"/><path class="cls-2" d="M96.38,229.44S87.43,326.61,78,426.87"/></g></g></svg>