<svg xmlns="http://www.w3.org/2000/svg" viewBox="0 0 214.37 455.61"><defs><style>.cls-1{fill:#fff;}.cls-1,.cls-2,.cls-3{stroke:#000;stroke-linecap:round;stroke-linejoin:round;stroke-width:7px;}.cls-2{fill:none;}</style></defs><title>testAsset 35</title><g id="Layer_2" data-name="Layer 2"><g id="Sad"><path class="cls-1" d="M49.28,18.22c-5,4.21-10.54,8.12-14.54,13.18-5.59,7.07-8.56,16.76-15.17,22.37C6.33,65,3.27,79.52,3.78,94.93c.87,26.19-3.52,52.45,5.87,78.53,10.93,30.35,38.24,40,70.7,42.91,20.3,1.79,37-6.57,53.85-18.48,6.18-4.36,14.45-4.87,21.13-8.36,35.49-18.52,49.23-50.74,53.73-88.09,1.36-11.25,3.17-23.34.21-31.24-11.66-31.1-49.31-62-90.35-66.33-2.78-.29-5.58-.26-8.37-.33C94.62,3.11,64.25,5.67,49.28,18.22Z"/><path class="cls-2" d="M113.62,403.11c-3-73-8.14-131.26-20.5-126.5-23.71,9.13-8.5,24.5-22.5,56.5-12.22,27.92-14,68-14,79"/><path class="cls-2" d="M101.51,215.77c2.47,23.48-4,45.83-7.71,68.65-3.25,19.78-2.63,40.2-3.72,60.34,0,0-4.78,35.92-4.82,50.62-.17,63.13.57-6.4.36,56.73"/><path class="cls-2" d="M63.89,169.53c3-22.54,15.56-33,37.33-31,6.5.61,13,.92,19.5,1.88,16.48,2.44,19,5.61,19.17,23.05"/><circle class="cls-3" cx="79.12" cy="107.61" r="2.5"/><circle class="cls-3" cx="136.12" cy="116.61" r="2.5" transform="translate(-42.59 130.41) rotate(-45)"/></g></g></svg>