<svg xmlns="http://www.w3.org/2000/svg" viewBox="0 0 288.88 395.61"><defs><style>.cls-1{fill:#fff;stroke-miterlimit:10;}.cls-1,.cls-2,.cls-3{stroke:#000;stroke-width:7px;}.cls-2{fill:none;}.cls-2,.cls-3{stroke-linecap:round;stroke-linejoin:round;}</style></defs><title>testAsset 34</title><g id="Layer_2" data-name="Layer 2"><g id="Happy"><path class="cls-1" d="M124.11,18.22c-5,4.21-10.54,8.12-14.54,13.18C104,38.47,101,48.16,94.41,53.77,81.17,65,78.1,79.52,78.62,94.93c.87,26.19-3.52,52.45,5.87,78.53,10.93,30.35,38.24,40,70.7,42.91,20.3,1.79,37-6.57,53.85-18.48,6.18-4.36,14.45-4.87,21.13-8.36,35.49-18.52,49.23-50.74,53.73-88.09,1.36-11.25,3.17-23.34.21-31.24-11.66-31.1-49.31-62-90.35-66.33-2.78-.29-5.58-.26-8.37-.33C169.45,3.11,139.08,5.67,124.11,18.22Z" transform="translate(-34.95)"/><path class="cls-2" d="M0,735" transform="translate(-34.95)"/><path class="cls-2" d="M176.34,215.77c2.47,23.48-4,45.83-7.71,68.65-3.25,19.78-2.63,40.2-3.72,60.34,0,0-.42,32.65-.46,47.35" transform="translate(-34.95)"/><path class="cls-2" d="M207.45,143.11c-5,13-7.14,18-29,18-6.53,0-23-3-29-14" transform="translate(-34.95)"/><circle class="cls-3" cx="125" cy="62.61" r="2.5"/><circle class="cls-3" cx="169" cy="59.61" r="2.5"/><path class="cls-2" d="M320.34,287.53c-40,5.26-80.53,9.91-124,16.69-12.88,2-25.22,8-37.58,12.77-23.71,9.13-44.24-.82-70.26-.88-14.15,0-35.85,3.82-50,6" transform="translate(-34.95)"/></g></g></svg>