<svg xmlns="http://www.w3.org/2000/svg" viewBox="0 0 247.38 398.88"><defs><style>.cls-1{fill:#fff;}.cls-1,.cls-2,.cls-3{stroke:#000;stroke-linecap:round;stroke-linejoin:round;stroke-width:7px;}.cls-2{fill:none;}</style></defs><title>testAsset 37</title><g id="Layer_2" data-name="Layer 2"><g id="Exited"><path class="cls-1" d="M58.66,18.22c-5,4.21-10.54,8.12-14.54,13.18C38.53,38.47,35.56,48.16,29,53.77,15.71,65,12.65,79.52,13.16,94.93,14,121.12,9.64,147.39,19,173.47c10.93,30.35,38.24,40,70.7,42.91,20.3,1.79,37-6.57,53.85-18.48,6.18-4.36,14.45-4.87,21.13-8.36,35.49-18.52,49.23-50.74,53.73-88.09,1.36-11.25,3.17-23.34.21-31.24C207,39.11,169.35,8.22,128.3,3.88c-2.78-.29-5.58-.26-8.37-.33C104,3.11,73.63,5.67,58.66,18.22Z"/><path class="cls-2" d="M243.88,290.53c-41.36,5.44-82.83,10.27-124,16.69-12.88,2-4-.38-16.35,4.38-23.71,9.13-52.87-40.82-68-62-15-21-17.85-48.18-32-46"/><path class="cls-2" d="M110.89,215.77c2.47,23.48-4,45.83-7.71,68.65-3.25,19.78-2.63,40.2-3.72,60.34,0,0-5.24,38.36-4.82,50.62"/><path class="cls-1" d="M70.27,153.53q2.22-16.9,11.61-24.69c6.24-5.17,14.83-7.28,25.72-6.26,3.25.3,6.51.53,9.77.81s6.51.59,9.73,1.07c8.24,1.22,19.4,1.15,18.4,22.15,2.71,3.28-75.09-1.72-75,7"/><circle class="cls-3" cx="85" cy="74.11" r="2.5"/><circle class="cls-3" cx="145" cy="79.11" r="2.5"/><path class="cls-2" d="M74.71,60.53s21,6,21,12"/><path class="cls-2" d="M137.5,74.61c0-4.85,16-11,16-11"/></g></g></svg>